<?xml version="1.0" encoding="UTF-8"?>
<svg version="1.1" xmlns="http://www.w3.org/2000/svg" width="50" height="50">
<path d="M0 0 C1.26714844 -0.02449219 2.53429687 -0.04898437 3.83984375 -0.07421875 C15.60717724 -0.11133968 15.60717724 -0.11133968 20.125 4.375 C23.50899487 9.65178782 22.49389877 16.21588756 22.5 22.25 C22.52449219 23.51714844 22.54898438 24.78429687 22.57421875 26.08984375 C22.61133968 37.85717724 22.61133968 37.85717724 18.125 42.375 C12.84821218 45.75899487 6.28411244 44.74389877 0.25 44.75 C-1.01714844 44.77449219 -2.28429687 44.79898438 -3.58984375 44.82421875 C-15.35717724 44.86133968 -15.35717724 44.86133968 -19.875 40.375 C-23.25899487 35.09821218 -22.24389877 28.53411244 -22.25 22.5 C-22.27449219 21.23285156 -22.29898437 19.96570313 -22.32421875 18.66015625 C-22.36133968 6.89282276 -22.36133968 6.89282276 -17.875 2.375 C-12.59821218 -1.00899487 -6.03411244 0.00610123 0 0 Z M11.125 9.375 C11.125 10.035 11.125 10.695 11.125 11.375 C11.785 11.375 12.445 11.375 13.125 11.375 C13.125 10.715 13.125 10.055 13.125 9.375 C12.465 9.375 11.805 9.375 11.125 9.375 Z M-8.875 16.375 C-10.47586627 19.57673254 -10.37417089 22.90077059 -9.875 26.375 C-8.08136089 29.1850346 -6.85619065 30.88440468 -3.875 32.375 C1.93845947 32.90865513 1.93845947 32.90865513 7.0625 30.5 C10.22195358 27.2448054 10.45921243 24.95086762 10.41796875 20.4140625 C9.96245033 17.24365433 8.37184343 15.5557598 6.125 13.375 C0.40627892 10.51563946 -4.65270087 12.02475241 -8.875 16.375 Z " fill="#2F08BB" transform="translate(24.875,2.625)"/>
<path d="M0 0 C3.55247432 0.87379409 4.94828114 2.4927342 6.9375 5.4765625 C7.63597125 8.3162489 7.63597125 10.6368761 6.9375 13.4765625 C4.94828114 16.4603908 3.55247432 18.07933091 0 18.953125 C-3.92313492 19.23547183 -5.73362371 18.69581336 -9.0625 16.4765625 C-11.28175086 13.14768621 -11.82140933 11.33719742 -11.5390625 7.4140625 C-10.07519871 1.46261629 -5.59135555 -0.40240816 0 0 Z " fill="#2F08BB" transform="translate(27.0625,15.5234375)"/>
</svg>
